<svg width="600" height="200" viewBox="0 0 600 200" fill="none" xmlns="http://www.w3.org/2000/svg">
<rect x="0.5" y="0.5" width="599" height="199" fill="#DDDDDD" stroke="#4A5568" stroke-dasharray="50 50"/>
<g clip-path="url(#clip0_3_13900)">
<path d="M50 50.4823H75.7235V53.3762V145.659H80.3858C87.7813 145.659 93.7299 143.408 98.2315 138.746C102.733 134.244 107.074 127.17 111.736 117.685H114.469L111.897 148.392H50V145.498V53.3762V50.4823Z" fill="white"/>
<path d="M122.186 89.2283L121.061 87.4598C129.26 82.1544 133.279 76.6881 133.279 71.3827C133.279 68.6495 132.154 67.0418 129.742 66.7203L124.276 71.865C122.508 71.2219 120.9 70.0965 119.453 68.4888C118.006 66.8811 117.202 64.791 117.202 62.2187C117.202 59.6463 118.167 57.5563 120.257 55.7878C122.347 54.0193 124.919 53.0547 128.135 53.0547C131.35 53.0547 134.083 54.1801 136.334 56.4309C138.424 58.6817 139.549 61.7364 139.549 65.7557C139.549 74.1158 133.762 81.9936 122.186 89.2283Z" fill="#E00C19"/>
<path d="M146.784 50H178.456V98.0707C179.903 94.0514 181.993 90.836 184.887 88.2637C187.781 85.8521 192.122 84.5659 198.07 84.5659C211.736 84.5659 218.488 91.9614 218.488 106.592V146.141H225.884V148.553H188.585V146.141H194.051V103.537C194.051 98.2315 193.73 94.8553 192.926 93.4084C192.283 91.8006 190.996 91.1576 189.067 91.1576C186.334 91.1576 183.762 92.926 181.672 96.6238C179.582 100.322 178.456 104.823 178.456 109.968V146.302H184.083V148.714H146.784V146.302H154.019V52.4116H146.784V50Z" fill="white"/>
<path d="M254.02 112.058H267.525V105.627C267.525 98.553 267.042 93.7299 266.238 91.1576C265.435 88.5852 263.666 87.299 261.254 87.299C258.682 87.299 256.914 88.746 255.788 91.4791C254.663 94.2122 254.02 99.0354 254.02 105.788V112.058ZM236.978 141.158C231.351 135.37 228.457 127.17 228.457 116.881C228.457 106.431 231.672 98.5531 237.943 93.0868C244.373 87.6206 252.412 84.7267 262.219 84.7267C282.155 84.7267 291.64 94.6945 290.836 114.791H253.698V119.936C253.698 128.457 254.824 135.048 256.914 139.389C259.164 143.73 262.862 145.981 268.328 145.981C278.457 145.981 285.209 140.514 288.264 129.743L290.676 130.064C289.068 136.334 286.013 141.318 281.672 144.855C277.332 148.392 270.901 150.161 262.219 150.161C251.126 150 242.605 147.106 236.978 141.158Z" fill="white"/>
<path d="M342.443 95.0161C341.64 91.9614 339.871 90.3537 337.299 90.3537C334.726 90.3537 332.476 91.9614 330.386 95.0161C328.295 98.2315 327.331 102.572 327.331 108.039V132.476C327.331 136.174 328.135 139.389 329.582 142.122C331.189 144.695 333.279 146.141 336.173 146.141C339.067 146.141 340.996 144.212 341.961 140.354C343.086 136.495 343.569 129.743 343.569 120.096V113.183C343.73 104.18 343.247 98.2315 342.443 95.0161ZM327.331 50V95.9807C330.707 88.4244 336.334 84.7267 344.373 84.7267C360.771 84.7267 368.971 95.6592 368.971 117.524C368.971 128.617 366.72 136.817 362.218 142.122C357.717 147.428 350.964 150 341.961 150C337.459 150 333.923 149.357 331.511 147.91C329.099 146.463 327.492 144.212 326.527 140.997L325.562 148.714H295.498V146.302H302.733V52.4116H295.498V50H327.331Z" fill="white"/>
<path d="M401.125 139.711C402.09 142.765 403.858 144.212 406.431 144.212C409.003 144.212 411.254 143.087 413.183 140.836C415.112 138.585 416.077 135.209 416.077 130.707V102.09C416.077 98.3923 415.273 95.1768 413.826 92.4437C412.379 89.8714 410.128 88.4244 407.235 88.4244C404.341 88.4244 402.411 90.3537 401.286 94.2122C400.161 98.0707 399.678 104.823 399.678 114.469V121.383C399.678 130.547 400.161 136.817 401.125 139.711ZM417.685 148.714L416.238 139.55C413.183 146.624 407.235 150 398.071 150C390.514 150 384.727 147.267 380.546 141.801C376.366 136.334 374.276 128.296 374.276 117.524C374.276 95.6592 382.958 84.7267 400.321 84.7267C408.038 84.7267 413.183 86.8167 415.595 91.1576V52.4116H407.556V50H440.514V146.302H446.945V148.714H417.685Z" fill="white"/>
<path d="M492.766 122.669V111.415C492.766 102.894 492.283 96.7846 491.319 92.7653C490.354 88.746 488.264 86.9775 484.888 86.9775C482.959 86.9775 481.351 87.4598 480.225 88.5852C479.1 89.7106 478.135 91.4791 477.653 94.0514C476.849 98.0707 476.528 104.019 476.528 112.058V122.347C476.528 131.833 476.849 137.621 477.332 139.55C477.975 141.479 478.457 143.087 479.1 144.212C480.065 146.302 481.994 147.428 484.727 147.428C488.103 147.428 490.354 145.498 491.479 141.479C492.444 138.907 492.766 132.476 492.766 122.669ZM459.807 141.479C454.18 135.852 451.447 127.814 451.447 117.363C451.447 106.913 454.502 98.8746 460.45 93.0868C466.399 87.4598 474.92 84.5659 485.692 84.5659C496.463 84.5659 504.663 87.1383 509.968 92.4437C515.274 97.5884 518.007 105.627 518.007 116.238C518.007 138.585 506.914 149.839 484.566 149.839C473.795 150 465.434 147.106 459.807 141.479Z" fill="white"/>
<path d="M537.781 150C533.922 150 531.189 148.875 529.26 146.624C527.331 144.373 526.366 141.64 526.366 138.424C526.366 135.209 527.331 132.476 529.26 130.386C531.189 128.135 534.083 127.17 537.62 127.17C541.157 127.17 544.051 128.135 546.141 129.904C548.231 131.672 549.357 134.566 549.357 138.264C549.357 141.961 548.392 144.855 546.463 146.945C544.533 148.875 541.64 150 537.781 150Z" fill="#E00C19"/>
</g>
<defs>
<clipPath id="clip0_3_13900">
<rect width="499.357" height="100" fill="white" transform="translate(50 50)"/>
</clipPath>
</defs>
</svg>
