<svg width="500" height="100" viewBox="0 0 500 100" fill="none" xmlns="http://www.w3.org/2000/svg">
<g clip-path="url(#clip0_3_13887)">
<path d="M0 0.4823H25.7235V3.37619V95.6592H30.3858C37.7813 95.6592 43.7299 93.4084 48.2315 88.746C52.7331 84.2444 57.074 77.1704 61.7363 67.6849H64.4694L61.8971 98.3923H0V95.4984V3.37619V0.4823Z" fill="#040404"/>
<path d="M72.1861 39.2283L71.0607 37.4598C79.26 32.1544 83.2793 26.6881 83.2793 21.3827C83.2793 18.6495 82.1539 17.0418 79.7423 16.7203L74.2761 21.865C72.5076 21.2219 70.8999 20.0965 69.453 18.4888C68.006 16.8811 67.2021 14.791 67.2021 12.2187C67.2021 9.64633 68.1668 7.55629 70.2568 5.78781C72.3468 4.01932 74.9192 3.05469 78.1346 3.05469C81.3501 3.05469 84.0832 4.18009 86.334 6.43089C88.424 8.6817 89.5494 11.7364 89.5494 15.7557C89.5494 24.1158 83.7616 31.9936 72.1861 39.2283Z" fill="#E00C19"/>
<path d="M96.7842 0H128.456V48.0707C129.903 44.0514 131.993 40.836 134.887 38.2637C137.781 35.8521 142.122 34.5659 148.07 34.5659C161.736 34.5659 168.488 41.9614 168.488 56.5916V96.1415H175.884V98.553H138.585V96.1415H144.051V53.537C144.051 48.2315 143.73 44.8553 142.926 43.4084C142.283 41.8006 140.996 41.1576 139.067 41.1576C136.334 41.1576 133.762 42.926 131.672 46.6238C129.582 50.3215 128.456 54.8231 128.456 59.9678V96.3022H134.083V98.7138H96.7842V96.3022H104.019V2.41158H96.7842V0Z" fill="#040404"/>
<path d="M204.02 62.0579H217.525V55.627C217.525 48.553 217.042 43.7299 216.238 41.1576C215.435 38.5852 213.666 37.299 211.254 37.299C208.682 37.299 206.914 38.746 205.788 41.4791C204.663 44.2122 204.02 49.0354 204.02 55.7878V62.0579ZM186.978 91.1576C181.351 85.3698 178.457 77.1704 178.457 66.881C178.457 56.4309 181.672 48.5531 187.943 43.0868C194.373 37.6206 202.412 34.7267 212.219 34.7267C232.155 34.7267 241.64 44.6945 240.836 64.791H203.698V69.9357C203.698 78.4566 204.824 85.0482 206.914 89.3891C209.164 93.7299 212.862 95.9807 218.328 95.9807C228.457 95.9807 235.209 90.5145 238.264 79.7428L240.676 80.0643C239.068 86.3344 236.013 91.3183 231.672 94.8553C227.332 98.3923 220.901 100.161 212.219 100.161C201.126 100 192.605 97.1061 186.978 91.1576Z" fill="#040404"/>
<path d="M292.443 45.0161C291.64 41.9614 289.871 40.3537 287.299 40.3537C284.726 40.3537 282.476 41.9614 280.386 45.0161C278.295 48.2315 277.331 52.5723 277.331 58.0386V82.4759C277.331 86.1736 278.135 89.3891 279.582 92.1222C281.189 94.6945 283.279 96.1415 286.173 96.1415C289.067 96.1415 290.996 94.2122 291.961 90.3537C293.086 86.4952 293.569 79.7428 293.569 70.0965V63.1833C293.73 54.1801 293.247 48.2315 292.443 45.0161ZM277.331 0V45.9807C280.707 38.4244 286.334 34.7267 294.373 34.7267C310.771 34.7267 318.971 45.6592 318.971 67.5241C318.971 78.6174 316.72 86.8167 312.218 92.1222C307.717 97.4277 300.964 100 291.961 100C287.459 100 283.923 99.3569 281.511 97.91C279.099 96.463 277.492 94.2122 276.527 90.9968L275.562 98.7138H245.498V96.3023H252.733V2.41158H245.498V0H277.331Z" fill="#040404"/>
<path d="M351.125 89.7106C352.09 92.7653 353.858 94.2122 356.431 94.2122C359.003 94.2122 361.254 93.0868 363.183 90.836C365.112 88.5852 366.077 85.209 366.077 80.7074V52.09C366.077 48.3923 365.273 45.1768 363.826 42.4437C362.379 39.8714 360.128 38.4244 357.235 38.4244C354.341 38.4244 352.411 40.3537 351.286 44.2122C350.161 48.0707 349.678 54.8231 349.678 64.4695V71.3826C349.678 80.5466 350.161 86.8167 351.125 89.7106ZM367.685 98.7138L366.238 89.5498C363.183 96.6238 357.235 100 348.071 100C340.514 100 334.727 97.2669 330.546 91.8006C326.366 86.3344 324.276 78.2958 324.276 67.5241C324.276 45.6592 332.958 34.7267 350.321 34.7267C358.038 34.7267 363.183 36.8167 365.595 41.1576V2.41158H357.556V0H390.514V96.3023H396.945V98.7138H367.685Z" fill="#040404"/>
<path d="M442.766 72.6688V61.4148C442.766 52.8939 442.283 46.7846 441.319 42.7653C440.354 38.746 438.264 36.9775 434.888 36.9775C432.959 36.9775 431.351 37.4598 430.225 38.5852C429.1 39.7106 428.135 41.4791 427.653 44.0514C426.849 48.0707 426.528 54.0193 426.528 62.0579V72.3473C426.528 81.8328 426.849 87.6206 427.331 89.5499C427.975 91.4791 428.457 93.0868 429.1 94.2122C430.065 96.3023 431.994 97.4277 434.727 97.4277C438.103 97.4277 440.354 95.4984 441.479 91.4791C442.444 88.9068 442.766 82.4759 442.766 72.6688ZM409.807 91.4791C404.18 85.8521 401.447 77.8135 401.447 67.3634C401.447 56.9132 404.502 48.8746 410.45 43.0868C416.399 37.4598 424.92 34.5659 435.692 34.5659C446.463 34.5659 454.663 37.1383 459.968 42.4437C465.274 47.5884 468.007 55.627 468.007 66.2379C468.007 88.5852 456.913 99.8392 434.566 99.8392C423.795 100 415.434 97.1061 409.807 91.4791Z" fill="#040404"/>
<path d="M487.781 100C483.922 100 481.189 98.8746 479.26 96.6238C477.331 94.373 476.366 91.6399 476.366 88.4244C476.366 85.209 477.331 82.4759 479.26 80.3858C481.189 78.135 484.083 77.1704 487.62 77.1704C491.157 77.1704 494.051 78.135 496.141 79.9035C498.231 81.672 499.357 84.5659 499.357 88.2637C499.357 91.9614 498.392 94.8553 496.463 96.9453C494.533 98.8746 491.64 100 487.781 100Z" fill="#E00C19"/>
</g>
<defs>
<clipPath id="clip0_3_13887">
<rect width="499.357" height="100" fill="white"/>
</clipPath>
</defs>
</svg>
