<svg width="24" height="18" viewBox="0 0 24 18" fill="none" xmlns="http://www.w3.org/2000/svg">
<path d="M0.464844 15.8018C2.30404 14.9066 3.74447 13.8649 4.78613 12.6768C5.8278 11.4886 6.43001 10.0482 6.59277 8.35547H5.22559C4.21647 8.35547 3.39453 8.24154 2.75977 8.01367C2.125 7.78581 1.6123 7.46842 1.22168 7.06152C0.847331 6.68717 0.578776 6.264 0.416016 5.79199C0.269531 5.30371 0.196289 4.80729 0.196289 4.30273C0.196289 3.26107 0.611328 2.34961 1.44141 1.56836C2.28776 0.787109 3.2806 0.396484 4.41992 0.396484C6.21029 0.396484 7.58561 0.99056 8.5459 2.17871C9.50618 3.36686 9.98633 5.01074 9.98633 7.11035C9.98633 9.06348 9.15625 11.0329 7.49609 13.0186C5.85221 15.0042 3.86654 16.5098 1.53906 17.5352L0.464844 15.8018ZM13.8926 15.8018C15.7318 14.9066 17.1722 13.8649 18.2139 12.6768C19.2555 11.4886 19.8577 10.0482 20.0205 8.35547H18.6533C17.6442 8.35547 16.8223 8.24154 16.1875 8.01367C15.5527 7.78581 15.04 7.46842 14.6494 7.06152C14.2751 6.68717 14.0065 6.264 13.8438 5.79199C13.6973 5.30371 13.624 4.80729 13.624 4.30273C13.624 3.26107 14.0391 2.34961 14.8691 1.56836C15.7155 0.787109 16.7083 0.396484 17.8477 0.396484C19.638 0.396484 21.0133 0.99056 21.9736 2.17871C22.9339 3.36686 23.4141 5.01074 23.4141 7.11035C23.4141 9.06348 22.584 11.0329 20.9238 13.0186C19.2799 15.0042 17.2943 16.5098 14.9668 17.5352L13.8926 15.8018Z" fill="#E00C19"/>
</svg>
