<svg width="200" height="41" viewBox="0 0 200 41" fill="none" xmlns="http://www.w3.org/2000/svg">
<g clip-path="url(#clip0_73_1359)">
<path d="M0 0.942932H10.2894V2.10049V39.0137H12.1543C15.1125 39.0137 17.492 38.1134 19.2926 36.2484C21.0932 34.4478 22.8296 31.6182 24.6945 27.824H25.7878L24.7588 40.1069H0V38.9494V2.10049V0.942932Z" fill="white"/>
<path d="M28.8747 16.4413L28.4245 15.7339C31.7043 13.6117 33.312 11.4252 33.312 9.30305C33.312 8.2098 32.8618 7.56672 31.8972 7.4381L29.7107 9.49598C29.0033 9.23874 28.3602 8.78858 27.7814 8.1455C27.2026 7.50241 26.8811 6.6664 26.8811 5.63746C26.8811 4.60852 27.267 3.77251 28.103 3.06511C28.939 2.35771 29.9679 1.97186 31.2541 1.97186C32.5403 1.97186 33.6335 2.42202 34.5338 3.32234C35.3699 4.22267 35.82 5.44453 35.82 7.05225C35.82 10.3963 33.5049 13.5474 28.8747 16.4413Z" fill="#E00C19"/>
<path d="M38.7139 0.75H51.3827V19.9783C51.9615 18.3706 52.7975 17.0844 53.955 16.0555C55.1126 15.0908 56.8489 14.5764 59.2283 14.5764C64.6946 14.5764 67.3955 17.5346 67.3955 23.3867V39.2066H70.3537V40.1712H55.4341V39.2066H57.6206V22.1648C57.6206 20.0426 57.492 18.6921 57.1705 18.1133C56.9132 17.4703 56.3987 17.213 55.627 17.213C54.5338 17.213 53.5049 17.9204 52.6688 19.3995C51.8328 20.8786 51.3827 22.6793 51.3827 24.7371V39.2709H53.6335V40.2355H38.7139V39.2709H41.6078V1.71463H38.7139V0.75Z" fill="white"/>
<path d="M81.6076 25.5732H87.0096V23.0008C87.0096 20.1712 86.8166 18.242 86.4951 17.213C86.1736 16.1841 85.4662 15.6696 84.5015 15.6696C83.4726 15.6696 82.7652 16.2484 82.315 17.3417C81.8649 18.4349 81.6076 20.3642 81.6076 23.0651V25.5732ZM74.7909 37.213C72.5401 34.8979 71.3826 31.6182 71.3826 27.5024C71.3826 23.3224 72.6687 20.1712 75.1768 17.9847C77.7491 15.7982 80.9646 14.6407 84.8874 14.6407C92.8617 14.6407 96.6559 18.6278 96.3343 26.6664H81.479V28.7243C81.479 32.1326 81.9292 34.7693 82.7652 36.5056C83.6655 38.242 85.1446 39.1423 87.3311 39.1423C91.3826 39.1423 94.0835 36.9558 95.3054 32.6471L96.27 32.7757C95.6269 35.2838 94.4051 37.2773 92.6687 38.6921C90.9324 40.1069 88.3601 40.8143 84.8874 40.8143C80.4501 40.75 77.0417 39.5925 74.7909 37.213Z" fill="white"/>
<path d="M116.978 18.7564C116.656 17.5346 115.949 16.8915 114.92 16.8915C113.891 16.8915 112.99 17.5346 112.154 18.7564C111.318 20.0426 110.933 21.7789 110.933 23.9654V33.7404C110.933 35.2195 111.254 36.5056 111.833 37.5989C112.476 38.6278 113.312 39.2066 114.47 39.2066C115.627 39.2066 116.399 38.4349 116.785 36.8915C117.235 35.3481 117.428 32.6471 117.428 28.7886V26.0233C117.492 22.422 117.299 20.0426 116.978 18.7564ZM110.933 0.75V19.1423C112.283 16.1198 114.534 14.6407 117.749 14.6407C124.309 14.6407 127.589 19.0137 127.589 27.7596C127.589 32.1969 126.688 35.4767 124.888 37.5989C123.087 39.7211 120.386 40.75 116.785 40.75C114.984 40.75 113.569 40.4928 112.605 39.914C111.64 39.3352 110.997 38.4349 110.611 37.1487L110.225 40.2355H98.1995V39.2709H101.093V1.71463H98.1995V0.75H110.933Z" fill="white"/>
<path d="M140.45 36.6342C140.836 37.8561 141.543 38.4349 142.572 38.4349C143.601 38.4349 144.502 37.9847 145.273 37.0844C146.045 36.1841 146.431 34.8336 146.431 33.033V21.586C146.431 20.1069 146.109 18.8207 145.531 17.7275C144.952 16.6986 144.052 16.1198 142.894 16.1198C141.736 16.1198 140.965 16.8915 140.515 18.4349C140.064 19.9783 139.871 22.6793 139.871 26.5378V29.3031C139.871 32.9687 140.064 35.4767 140.45 36.6342ZM147.074 40.2355L146.495 36.5699C145.273 39.3995 142.894 40.75 139.228 40.75C136.206 40.75 133.891 39.6567 132.219 37.4703C130.547 35.2838 129.711 32.0683 129.711 27.7596C129.711 19.0137 133.183 14.6407 140.129 14.6407C143.216 14.6407 145.273 15.4767 146.238 17.213V1.71463H143.023V0.75H156.206V39.2709H158.778V40.2355H147.074Z" fill="white"/>
<path d="M177.106 29.8175V25.3159C177.106 21.9075 176.913 19.4638 176.527 17.8561C176.142 16.2484 175.306 15.541 173.955 15.541C173.183 15.541 172.54 15.7339 172.09 16.1841C171.64 16.6342 171.254 17.3416 171.061 18.3706C170.74 19.9783 170.611 22.3577 170.611 25.5731V29.6889C170.611 33.4831 170.74 35.7982 170.933 36.5699C171.19 37.3416 171.383 37.9847 171.64 38.4349C172.026 39.2709 172.798 39.7211 173.891 39.7211C175.241 39.7211 176.142 38.9493 176.592 37.3416C176.978 36.3127 177.106 33.7403 177.106 29.8175ZM163.923 37.3416C161.672 35.0908 160.579 31.8754 160.579 27.6953C160.579 23.5153 161.801 20.2998 164.18 17.9847C166.56 15.7339 169.968 14.5764 174.277 14.5764C178.585 14.5764 181.865 15.6053 183.987 17.7275C186.109 19.7854 187.203 23.0008 187.203 27.2452C187.203 36.1841 182.765 40.6857 173.826 40.6857C169.518 40.75 166.174 39.5924 163.923 37.3416Z" fill="white"/>
<path d="M195.113 40.75C193.569 40.75 192.476 40.2998 191.704 39.3995C190.932 38.4992 190.547 37.4059 190.547 36.1198C190.547 34.8336 190.932 33.7404 191.704 32.9043C192.476 32.004 193.633 31.6182 195.048 31.6182C196.463 31.6182 197.621 32.004 198.457 32.7114C199.293 33.4188 199.743 34.5764 199.743 36.0555C199.743 37.5346 199.357 38.6921 198.585 39.5281C197.814 40.2998 196.656 40.75 195.113 40.75Z" fill="#E00C19"/>
</g>
<defs>
<clipPath id="clip0_73_1359">
<rect width="199.743" height="40" fill="white" transform="translate(0 0.75)"/>
</clipPath>
</defs>
</svg>
